<?xml version="1.0" standalone="no"?>
<!DOCTYPE svg PUBLIC "-//W3C//DTD SVG 20010904//EN"
 "http://www.w3.org/TR/2001/REC-SVG-20010904/DTD/svg10.dtd">
<svg version="1.0" xmlns="http://www.w3.org/2000/svg"
 viewBox="0 0 2600.000000 2600.000000"
 preserveAspectRatio="xMidYMid meet">
<metadata>
Created by potrace 1.15, written by Peter Selinger 2001-2017
</metadata>
<g transform="translate(0.000000,2600.000000) scale(0.100000,-0.100000)"
fill="#000000" stroke="none">
<path d="M6905 22431 c-58 -24 -61 -38 -101 -431 -93 -926 -197 -1454 -360
-1838 -313 -731 -909 -1057 -2211 -1207 -117 -13 -221 -29 -232 -35 -52 -27
-68 -106 -31 -153 26 -33 24 -33 235 -57 556 -65 990 -174 1312 -330 387 -187
634 -425 823 -791 232 -452 353 -1008 470 -2174 33 -330 36 -343 92 -375 20
-10 35 -12 64 -5 61 16 75 45 90 197 102 969 169 1409 275 1793 167 609 435
1002 859 1261 353 215 832 349 1534 429 76 9 151 22 165 30 29 14 51 52 51 86
0 29 -27 77 -50 89 -11 6 -100 20 -197 31 -1558 176 -2128 574 -2402 1674 -86
344 -167 903 -232 1595 -14 152 -26 186 -73 205 -39 17 -52 17 -81 6z"/>
<path d="M13060 21008 c-2720 -511 -4947 -932 -4949 -934 -3 -3 31 -41 75 -85
78 -79 211 -177 306 -225 154 -78 371 -147 630 -199 l166 -33 4009 754 c2204
415 4022 757 4038 760 l31 5 18 -183 c99 -1012 294 -2155 581 -3418 161 -707
303 -1270 682 -2705 326 -1235 493 -1897 623 -2473 40 -180 41 -184 23 -210
-10 -15 -36 -62 -59 -106 -23 -43 -44 -74 -46 -70 -3 5 -214 389 -468 854
-558 1019 -564 1030 -708 1181 -209 222 -519 358 -817 359 -274 0 -609 -130
-829 -322 l-40 -35 -81 38 c-286 134 -608 142 -908 23 -316 -126 -577 -351
-704 -609 -32 -65 -66 -156 -83 -221 -10 -40 -12 -42 -57 -49 -71 -10 -214
-60 -316 -109 -529 -256 -789 -747 -677 -1281 10 -49 25 -109 34 -132 l15 -42
-112 -55 c-394 -192 -629 -480 -693 -849 -23 -131 -15 -328 19 -459 46 -174
101 -289 448 -926 700 -1284 890 -1632 1008 -1846 67 -120 121 -222 121 -225
0 -7 -5368 -1017 -5374 -1010 -2 2 0 83 4 179 37 762 -24 1758 -165 2670 -184
1193 -457 2305 -1098 4470 -102 344 -220 744 -263 890 -42 146 -78 267 -80
269 -2 2 -23 -9 -47 -26 -191 -137 -445 -160 -649 -58 -38 18 -68 30 -68 26 0
-9 228 -789 444 -1516 547 -1851 807 -2891 981 -3935 140 -838 198 -1493 198
-2250 1 -520 -13 -755 -88 -1502 -8 -78 -13 -143 -12 -144 1 -1 1470 274 3265
611 1795 337 3280 616 3301 620 l39 6 172 -318 c246 -451 780 -1426 825 -1503
108 -185 254 -377 400 -529 456 -473 1063 -722 1699 -698 196 8 296 22 581 83
l220 46 1065 583 c586 320 1112 607 1170 638 79 43 111 66 130 94 13 21 95
110 180 198 227 233 331 377 451 620 127 259 198 513 229 824 16 161 12 332
-15 641 -35 418 -63 757 -80 1000 -9 118 -38 496 -65 840 -27 344 -81 1032
-120 1530 -79 1010 -81 1032 -115 1164 -120 462 -431 760 -893 853 -112 23
-391 23 -502 0 -41 -8 -76 -14 -77 -13 -1 1 -32 127 -68 281 -135 573 -231
945 -640 2495 -502 1903 -752 3007 -944 4165 -126 755 -220 1569 -266 2295
-10 155 -14 170 -38 169 -12 -1 -2247 -419 -4967 -931z m4291 -7520 c71 -36
139 -103 204 -203 49 -74 796 -1437 1478 -2695 162 -300 308 -560 323 -578 15
-18 75 -64 132 -102 82 -54 109 -67 119 -58 29 24 132 190 137 220 12 72 44
452 86 1024 20 274 35 417 46 450 59 179 199 264 433 264 238 0 367 -94 416
-302 13 -59 72 -769 215 -2603 79 -1021 117 -1494 135 -1700 40 -453 39 -598
-5 -813 -65 -320 -235 -616 -477 -828 -43 -38 -98 -90 -123 -115 -37 -38 -223
-143 -1078 -608 l-1033 -562 -153 -34 c-207 -46 -294 -56 -460 -56 -450 0
-836 178 -1143 530 -160 183 -96 69 -1686 2981 -539 987 -1058 1939 -1155
2115 -97 176 -195 361 -218 410 -127 268 -61 442 218 578 62 30 137 60 166 66
110 23 209 -16 305 -119 65 -69 68 -75 357 -605 906 -1662 869 -1600 975
-1640 91 -35 218 4 271 84 54 83 48 190 -20 323 -23 46 -365 675 -760 1398
-395 723 -738 1355 -762 1403 -51 104 -67 176 -62 266 7 122 82 225 223 308
108 64 184 86 280 81 126 -7 216 -63 298 -185 25 -37 388 -696 806 -1463 418
-767 771 -1411 784 -1431 30 -43 110 -85 201 -103 134 -28 193 25 230 206 19
90 14 109 -49 213 -24 39 -304 549 -623 1135 -1195 2198 -1082 1983 -1101
2098 -29 182 61 316 289 426 84 40 87 41 195 41 103 0 113 -2 163 -30 109 -60
141 -109 462 -700 90 -165 436 -799 770 -1410 334 -610 624 -1142 645 -1182
21 -39 48 -82 61 -94 27 -26 157 -59 231 -59 44 0 58 5 87 31 44 38 76 121 83
216 l6 72 -76 133 c-151 268 -1351 2476 -1393 2563 -110 231 -93 401 54 537
103 95 215 139 347 135 75 -2 99 -7 146 -29z"/>
<path d="M9900 17412 c-20 -16 -24 -39 -46 -247 -65 -616 -129 -916 -246
-1149 -170 -340 -464 -516 -1022 -610 -78 -13 -194 -30 -259 -37 -131 -14
-159 -27 -159 -73 0 -48 19 -56 178 -77 495 -62 812 -179 1028 -379 67 -62
160 -188 208 -284 130 -259 197 -558 263 -1167 32 -302 32 -305 51 -324 23
-23 71 -19 88 8 9 13 21 85 30 182 80 792 172 1161 355 1430 86 127 246 263
396 338 187 93 515 174 823 203 81 7 122 30 122 69 0 28 -23 53 -53 60 -12 2
-83 12 -157 21 -703 84 -1048 263 -1234 640 -127 257 -187 560 -262 1308 -9
97 -50 132 -104 88z"/>
</g>
</svg>
